<svg width="566" height="566" viewBox="0 0 566 566" fill="none" xmlns="http://www.w3.org/2000/svg">
<circle cx="283" cy="283" r="278" fill="white" stroke="black" stroke-width="10"/>
<path d="M104.612 288.736L70.369 283.662L80.9653 266.753L121.758 261.378L136.372 274.964L104.612 288.736Z" fill="white"/>
<path d="M301.499 213L279.999 199.5L313.999 152L383.5 201L356 217.5L329 192.5L301.499 213Z" fill="white"/>
<path d="M330.5 366.5L312 344L292 358L274 335.5L299 308.5L324 324L352.5 345.62L330.5 366.5Z" fill="white"/>
<path d="M246.5 247C178.5 257.5 239.944 262.596 193 262.596C177.929 262.596 190.774 279.078 178.5 272.198C173.596 269.449 168.992 266.228 164.75 262.596C146.54 247.007 135 223.851 135 198C135 151.056 173.056 113 220 113C256.384 113 287.428 135.86 299.554 168C303.074 177.329 246.5 236.44 246.5 247Z" fill="#FF0000"/>
<path d="M74 468L184.5 364L214 395L273.133 334.5M508.5 445.5L456.5 410.75M57.5 441L161.409 297M456.5 410.75L421.911 297M456.5 410.75L355 342.921M421.911 297L395 208.5L385 201.216M421.911 297L492 334.5L522 419M161.409 297L184.5 265L244 247.5L279 198.5M161.409 297L117 257L79.5 265L16.5 358M279 198.5L314 149.5L385 201.216M279 198.5L300.5 214.5L328 190.5L355 217.5L385 201.216M273.133 334.5L300.5 306.5L355 342.921M273.133 334.5L293 358L311 344.5L328 369.5L355 342.921" stroke="black" stroke-width="10"/>
<path d="M71.5 279.5L99 293.5L132.5 274" stroke="black" stroke-width="10"/>
</svg>
