<svg width="320" height="156" viewBox="0 0 160 78" fill="none" xmlns="http://www.w3.org/2000/svg">
<path d="M66.6206 11.9058L54.7762 52.9071C48.3068 64.1038 40.714 63.2048 36.966 59.4793C36.075 58.5903 35.3971 57.5416 35 56.4529L49.4012 6.61214C50.5343 2.68681 54.0402 0 58.0109 0C64.0251 0 68.3348 5.96291 66.6206 11.9058Z" fill="url(#paint0_linear_5_58)"/>
<path d="M54 55.5L51.5 64.8289C49.1343 72.6404 42.2662 78 33.9861 78C25.7163 78 18.4236 72.6404 16.0579 64.8289L0.402893 13.0768C-1.4177 7.04855 3.15949 1 9.54698 1H9.55727C13.7333 1 17.4259 3.67474 18.6602 7.59566C18.6705 7.63619 18.6911 7.66658 18.7014 7.70711L33.9861 57.5C35 59.5 35 59.5 37 61.5C40 63 47.1291 66.8575 54 55.5Z" fill="url(#paint1_linear_5_58)"/>
<path d="M55.104 68L59.208 59.6H60.72L64.8 68H63.372L60.552 62.216C60.48 62.064 60.408 61.916 60.336 61.772C60.264 61.628 60.192 61.484 60.12 61.34C60.056 61.196 59.992 61.044 59.928 60.884C59.864 60.724 59.8 60.548 59.736 60.356L60.12 60.344C60.048 60.536 59.976 60.716 59.904 60.884C59.84 61.052 59.772 61.212 59.7 61.364C59.628 61.516 59.556 61.668 59.484 61.82C59.412 61.964 59.34 62.112 59.268 62.264L56.472 68H55.104ZM56.892 66.032L57.408 64.784H62.388L62.592 66.032H56.892ZM68.0903 68V59.6H72.9983C73.4943 59.6 73.9463 59.716 74.3543 59.948C74.7703 60.172 75.1023 60.48 75.3503 60.872C75.5983 61.264 75.7223 61.7 75.7223 62.18C75.7223 62.684 75.5863 63.144 75.3143 63.56C75.0423 63.968 74.6823 64.296 74.2343 64.544C73.7863 64.784 73.2943 64.904 72.7583 64.904H69.3863V68H68.0903ZM74.5943 68L71.7383 64.208L73.1183 63.908L76.2143 68.012L74.5943 68ZM69.3863 63.656H72.6383C72.9423 63.656 73.2223 63.588 73.4783 63.452C73.7423 63.316 73.9503 63.136 74.1023 62.912C74.2623 62.688 74.3423 62.444 74.3423 62.18C74.3423 61.932 74.2623 61.708 74.1023 61.508C73.9503 61.308 73.7423 61.148 73.4783 61.028C73.2223 60.908 72.9423 60.848 72.6383 60.848H69.3863V63.656ZM84.302 68.12C83.63 68.12 82.998 68.02 82.406 67.82C81.822 67.612 81.306 67.32 80.858 66.944C80.418 66.56 80.074 66.104 79.826 65.576C79.578 65.04 79.454 64.448 79.454 63.8C79.454 63.184 79.582 62.616 79.838 62.096C80.102 61.576 80.458 61.124 80.906 60.74C81.354 60.356 81.87 60.06 82.454 59.852C83.038 59.636 83.654 59.528 84.302 59.528C84.846 59.528 85.366 59.6 85.862 59.744C86.358 59.88 86.806 60.056 87.206 60.272C87.614 60.48 87.938 60.7 88.178 60.932L87.41 62.024C87.122 61.784 86.814 61.572 86.486 61.388C86.158 61.204 85.802 61.06 85.418 60.956C85.042 60.852 84.63 60.8 84.182 60.8C83.758 60.8 83.342 60.872 82.934 61.016C82.534 61.152 82.17 61.352 81.842 61.616C81.514 61.872 81.254 62.188 81.062 62.564C80.87 62.932 80.774 63.344 80.774 63.8C80.774 64.304 80.874 64.748 81.074 65.132C81.274 65.508 81.546 65.824 81.89 66.08C82.234 66.336 82.622 66.532 83.054 66.668C83.486 66.796 83.934 66.86 84.398 66.86C84.878 66.86 85.306 66.8 85.682 66.68C86.058 66.552 86.394 66.396 86.69 66.212C86.986 66.028 87.254 65.848 87.494 65.672L88.118 66.752C87.894 66.936 87.586 67.136 87.194 67.352C86.81 67.568 86.37 67.752 85.874 67.904C85.386 68.048 84.862 68.12 84.302 68.12ZM99.0433 68V59.6H100.339V68H99.0433ZM91.8793 68V59.6H93.1753V68H91.8793ZM92.4433 64.484L92.4553 63.236H99.6193V64.484H92.4433ZM104.711 68V59.6H111.683V60.848H106.007V66.752H111.683V68H104.711ZM105.419 64.316V63.068H111.023V64.316H105.419ZM115.786 68V59.6H120.694C121.19 59.6 121.642 59.716 122.05 59.948C122.466 60.172 122.798 60.48 123.046 60.872C123.294 61.264 123.418 61.7 123.418 62.18C123.418 62.684 123.282 63.144 123.01 63.56C122.738 63.968 122.378 64.296 121.93 64.544C121.482 64.784 120.99 64.904 120.454 64.904H117.082V68H115.786ZM122.29 68L119.434 64.208L120.814 63.908L123.91 68.012L122.29 68ZM117.082 63.656H120.334C120.638 63.656 120.918 63.588 121.174 63.452C121.438 63.316 121.646 63.136 121.798 62.912C121.958 62.688 122.038 62.444 122.038 62.18C122.038 61.932 121.958 61.708 121.798 61.508C121.646 61.308 121.438 61.148 121.174 61.028C120.918 60.908 120.638 60.848 120.334 60.848H117.082V63.656Z" fill="url(#paint2_linear_5_58)"/>
<defs>
<linearGradient id="paint0_linear_5_58" x1="56.3387" y1="15.9038" x2="27.6619" y2="103.79" gradientUnits="userSpaceOnUse">
<stop stop-color="white"/>
<stop offset="1"/>
</linearGradient>
<linearGradient id="paint1_linear_5_58" x1="13.7525" y1="-4.93954" x2="44.2806" y2="88.5468" gradientUnits="userSpaceOnUse">
<stop stop-color="white"/>
<stop offset="1"/>
</linearGradient>
<linearGradient id="paint2_linear_5_58" x1="54" y1="67" x2="160" y2="67" gradientUnits="userSpaceOnUse">
<stop stop-color="#535353"/>
<stop offset="1" stop-color="white"/>
</linearGradient>
</defs>
</svg>
