<svg xmlns="http://www.w3.org/2000/svg" width="104" height="21" viewBox="0 0 104 21" fill="none">
  <path d="M82 0H77V21H82V0Z" fill="#262626"></path>
  <path d="M18 0H10.8711C4.85526 0 0 4.68954 0 10.5C0 16.3105 4.87895 21 10.8711 21H18C16.2 19.6275 14.7553 18.0588 13.8316 16H10.8474C7.83947 16 5 13.3824 5 10.5C5 7.59477 7.86316 5 10.8474 5H13.8553C14.7789 2.89542 16.2237 1.37255 18 0Z" fill="#262626"></path>
  <path d="M91 6.5C91 5.65359 91.6429 5 92.5 5H97H97.5C98.4266 3.07843 99.668 1.25817 101.498 0H92.556C88.9884 0 86 2.85948 86 6.38235C86 9.90523 88.9324 13 92.5 13H97.4208C98.3012 13 99 13.5425 99 14.4346C99 15.3039 98.3012 16 97.4208 16H86V21H97.3513C101.012 21 104 18.0719 104 14.4346C104 10.8203 101.104 7.93791 97.4208 7.93791H92.5C91.6429 7.93791 91 7.34641 91 6.5Z" fill="#262626"></path>
  <path d="M56 21V0H61V8H62.5C65.613 8 67 6.01634 67 2.60784V0H72V2.60784C72 5.74183 70.748 9.26471 67.9662 10.5C72.0727 11.4379 73 14.8007 73 18.3693V21H67.9662V18.3693C67.9662 15.4641 66.1351 13.0686 63 13H61V21L56 20.9771V21Z" fill="#262626"></path>
  <path d="M48 10.5C48 13.5 45.5 16 42.5 16C39.5 16 37 13.5 37 10.5C37 7.5 39.3506 5.02423 42.4253 5C45.5 4.97577 48 7.5 48 10.5ZM32 10.5C32 13.5 29.5 16 26.5747 16C23.5 16 21 13.5 21 10.5C21 7.5 23.5 5 26.5747 5C29.4776 5 32 7.5 32 10.5ZM53 10.5C53 4.71242 48.2771 0 42.4253 0C39.269 0 36.4352 1.37255 34.5 3.54575C32.5648 1.37255 29.731 0 26.5747 0C20.746 0 16 4.68954 16 10.5C16 16.3105 20.7229 21 26.5747 21C29.731 21 32.5648 19.6275 34.5 17.4542C36.4352 19.6275 39.269 21 42.4253 21C48.2771 21 53 16.2876 53 10.5Z" fill="#262626"></path>
</svg>