<svg width="863" height="325" viewBox="0 0 863 325" fill="none" xmlns="http://www.w3.org/2000/svg">
<rect x="75" y="85" width="736" height="200" rx="15" fill="white"/>
<rect x="75" y="85" width="200" height="200" fill="#5D61CC"/>
<rect x="228" y="214" width="35" height="106" transform="rotate(90 228 214)" fill="white"/>
<rect x="122" y="122" width="35" height="127" fill="white"/>
<g filter="url(#filter0_i_15_5352)">
<path d="M122 122H157V214H227.5V249H157H122L122 122Z" fill="white"/>
</g>
<path d="M426.242 185.148C426.242 197.065 423.521 207.75 418.078 217.203C412.635 226.599 405.76 233.818 397.453 238.859C391.208 242.641 384.362 245.276 376.914 246.766C369.466 248.255 360.643 249 350.445 249H305.328V121.039H351.734C362.161 121.039 371.156 121.927 378.719 123.703C386.281 125.422 392.641 127.885 397.797 131.094C406.62 136.479 413.552 143.755 418.594 152.922C423.693 162.031 426.242 172.773 426.242 185.148ZM392.125 184.891C392.125 176.469 390.578 169.279 387.484 163.32C384.448 157.305 379.607 152.607 372.961 149.227C369.581 147.565 366.115 146.448 362.562 145.875C359.068 145.245 353.768 144.93 346.664 144.93H338.328V225.023H346.664C354.513 225.023 360.271 224.68 363.938 223.992C367.604 223.247 371.185 221.93 374.68 220.039C380.695 216.602 385.107 212.018 387.914 206.289C390.721 200.503 392.125 193.37 392.125 184.891ZM513.496 181.969H510.746C509.429 181.51 507.309 181.167 504.387 180.938C501.465 180.708 499.03 180.594 497.082 180.594C492.671 180.594 488.775 180.88 485.395 181.453C482.014 182.026 478.376 183 474.481 184.375V249H443.543V152.492H474.481V166.672C481.298 160.828 487.228 156.961 492.27 155.07C497.311 153.122 501.952 152.148 506.192 152.148C507.28 152.148 508.512 152.177 509.887 152.234C511.262 152.292 512.465 152.378 513.496 152.492V181.969ZM555.805 249H524.867V152.492H555.805V249ZM556.664 138.742H524.008V115.281H556.664V138.742ZM676.059 152.492L638.848 249H603.786L566.832 152.492H599.575L621.918 218.836L644.004 152.492H676.059ZM782.219 206.461H711.407C711.865 214.023 714.73 219.81 720.001 223.82C725.329 227.831 733.149 229.836 743.462 229.836C749.993 229.836 756.324 228.661 762.454 226.312C768.584 223.964 773.425 221.443 776.977 218.75H780.415V243.586C773.425 246.393 766.837 248.427 760.649 249.688C754.462 250.948 747.615 251.578 740.11 251.578C720.745 251.578 705.907 247.224 695.594 238.516C685.282 229.807 680.126 217.404 680.126 201.305C680.126 185.378 684.995 172.773 694.735 163.492C704.532 154.154 717.938 149.484 734.954 149.484C750.652 149.484 762.454 153.466 770.36 161.43C778.266 169.336 782.219 180.737 782.219 195.633V206.461ZM751.454 188.328C751.282 181.854 749.678 176.984 746.641 173.719C743.605 170.453 738.878 168.82 732.462 168.82C726.503 168.82 721.605 170.367 717.766 173.461C713.928 176.555 711.779 181.51 711.321 188.328H751.454Z" fill="black"/>
<rect x="75" y="85" width="736" height="200" rx="15" fill="white"/>
<rect x="75" y="85" width="200" height="200" fill="#5D61CC"/>
<rect x="228" y="214" width="35" height="106" transform="rotate(90 228 214)" fill="white"/>
<rect x="122" y="122" width="35" height="127" fill="white"/>
<path d="M426.242 185.148C426.242 197.065 423.521 207.75 418.078 217.203C412.635 226.599 405.76 233.818 397.453 238.859C391.208 242.641 384.362 245.276 376.914 246.766C369.466 248.255 360.643 249 350.445 249H305.328V121.039H351.734C362.161 121.039 371.156 121.927 378.719 123.703C386.281 125.422 392.641 127.885 397.797 131.094C406.62 136.479 413.552 143.755 418.594 152.922C423.693 162.031 426.242 172.773 426.242 185.148ZM392.125 184.891C392.125 176.469 390.578 169.279 387.484 163.32C384.448 157.305 379.607 152.607 372.961 149.227C369.581 147.565 366.115 146.448 362.562 145.875C359.068 145.245 353.768 144.93 346.664 144.93H338.328V225.023H346.664C354.513 225.023 360.271 224.68 363.938 223.992C367.604 223.247 371.185 221.93 374.68 220.039C380.695 216.602 385.107 212.018 387.914 206.289C390.721 200.503 392.125 193.37 392.125 184.891ZM513.496 181.969H510.746C509.429 181.51 507.309 181.167 504.387 180.938C501.465 180.708 499.03 180.594 497.082 180.594C492.671 180.594 488.775 180.88 485.395 181.453C482.014 182.026 478.376 183 474.481 184.375V249H443.543V152.492H474.481V166.672C481.298 160.828 487.228 156.961 492.27 155.07C497.311 153.122 501.952 152.148 506.192 152.148C507.28 152.148 508.512 152.177 509.887 152.234C511.262 152.292 512.465 152.378 513.496 152.492V181.969ZM555.805 249H524.867V152.492H555.805V249ZM556.664 138.742H524.008V115.281H556.664V138.742ZM676.059 152.492L638.848 249H603.786L566.832 152.492H599.575L621.918 218.836L644.004 152.492H676.059ZM782.219 206.461H711.407C711.865 214.023 714.73 219.81 720.001 223.82C725.329 227.831 733.149 229.836 743.462 229.836C749.993 229.836 756.324 228.661 762.454 226.312C768.584 223.964 773.425 221.443 776.977 218.75H780.415V243.586C773.425 246.393 766.837 248.427 760.649 249.688C754.462 250.948 747.615 251.578 740.11 251.578C720.745 251.578 705.907 247.224 695.594 238.516C685.282 229.807 680.126 217.404 680.126 201.305C680.126 185.378 684.995 172.773 694.735 163.492C704.532 154.154 717.938 149.484 734.954 149.484C750.652 149.484 762.454 153.466 770.36 161.43C778.266 169.336 782.219 180.737 782.219 195.633V206.461ZM751.454 188.328C751.282 181.854 749.678 176.984 746.641 173.719C743.605 170.453 738.878 168.82 732.462 168.82C726.503 168.82 721.605 170.367 717.766 173.461C713.928 176.555 711.779 181.51 711.321 188.328H751.454Z" fill="black"/>
<path d="M122 122H157V214H227.5V249H157H122L122 122Z" fill="white"/>
<defs>
<filter id="filter0_i_15_5352" x="122" y="122" width="105.5" height="131" filterUnits="userSpaceOnUse" color-interpolation-filters="sRGB">
<feFlood flood-opacity="0" result="BackgroundImageFix"/>
<feBlend mode="normal" in="SourceGraphic" in2="BackgroundImageFix" result="shape"/>
<feColorMatrix in="SourceAlpha" type="matrix" values="0 0 0 0 0 0 0 0 0 0 0 0 0 0 0 0 0 0 127 0" result="hardAlpha"/>
<feOffset dy="4"/>
<feGaussianBlur stdDeviation="2"/>
<feComposite in2="hardAlpha" operator="arithmetic" k2="-1" k3="1"/>
<feColorMatrix type="matrix" values="0 0 0 0 0 0 0 0 0 0 0 0 0 0 0 0 0 0 0.25 0"/>
<feBlend mode="normal" in2="shape" result="effect1_innerShadow_15_5352"/>
</filter>
</defs>
</svg>
